<?xml version="1.0" standalone="yes"?>
<svg xmlns="http://www.w3.org/2000/svg" width="1023" height="1008">
<path style="fill:#FFFFFF; stroke:none;" d="M484 116.424C465.237 118.888 446.585 120.32 428 124.424C387.854 133.291 348.858 149.713 314 171.425C173.721 258.802 97.2082 436.774 145.28 597C160.936 649.181 186.746 697.216 221.754 739C235.25 755.108 252.489 775.801 273 782.899C294.831 790.454 320.226 777.118 338 765.333C378.393 738.549 411.604 701.66 455 679.258C490.115 661.132 528.18 654.881 567 650.286C593.118 647.194 619.964 647.111 643 632.302C652.962 625.897 661.37 617.843 669.155 609C680.919 595.636 691.067 581.439 698.127 565C713.874 528.335 714.091 483.786 707.754 445C704.157 422.985 698.371 400.745 687.691 381C671.085 350.298 644.534 321.24 615 302.436C587.14 284.697 551.391 280 519 280C490.871 280 462.972 284.188 436 292.28C420.122 297.044 404.077 302.746 390 311.695C364.414 327.961 343.634 352.688 328.861 379C296.004 437.52 279.259 520.428 332 572.999C339.934 580.907 348.963 587.733 359 592.752C369.991 598.248 381.922 602.242 394 604.424C435.806 611.978 487.465 610.377 512.771 570C524.378 551.481 522.342 526.685 518.75 506C515.239 485.786 512.821 460.91 500.239 444C489.815 429.99 471.768 422.406 455 419.464C426.749 414.506 396.944 428.691 382.453 453C374.868 465.724 372 479.373 372 494C372 504.398 373.135 514.647 378.123 524C385.686 538.179 400.637 546.599 415 552.575C424.896 556.692 435.268 558.773 446 557.907C458.001 556.937 465.989 547.578 471.934 538C476.078 531.326 479.975 523.927 480.826 516C483.304 492.939 466.55 462.282 441 461.04C434.081 460.704 426.779 461.345 421.04 465.638C410.451 473.559 408.132 491.619 413.832 503C418.481 512.283 429.936 519.14 438.891 510.775C442.073 507.804 443.796 503.363 442.681 499.019C441.951 496.172 439.288 493.606 436.147 494.662C432.816 495.782 433.222 504.016 429.166 502.654C420.41 499.715 427.336 484.979 432.043 481.893C442.456 475.069 453.522 488.654 457.33 497C464.809 513.389 455.066 534.725 436 536.812C422.047 538.339 404.571 528.352 397.108 517C384.895 498.423 389.817 463.832 408 450.789C430.18 434.878 465.919 440.197 482.24 462C495.922 480.277 498.123 503.985 496.075 526C494.761 540.119 489.954 555.073 478.985 564.7C467.436 574.837 452.961 579.364 438 581.155C405.962 584.991 373.123 575.587 352.899 549C316.093 500.614 334.705 430.496 366.59 385C382.162 362.779 401.964 342.339 426 329.309C448.333 317.202 473.966 312.627 499 310.911C543.473 307.862 592.554 315.171 627 346.171C663.765 379.257 678.076 430.689 675.961 479C675.327 493.468 672.745 507.765 670.25 522C664.999 551.96 653.762 585.097 627 602.302C611.464 612.289 592.162 615.154 574 613.911C563.381 613.183 552.673 610.759 542 612.439C524.155 615.248 511.506 628.292 495 634.305C474.812 641.659 453.407 641.016 433 646.86C418.808 650.925 406.409 659.574 396.093 670.025C383.26 683.026 370.3 699.21 350 697.91C332.633 696.797 317.135 685.834 302 678.247C287.08 670.768 272.258 662.379 260.001 650.911C238.505 630.798 223.439 603.367 213.319 576C203.632 549.805 196.266 522.021 195.039 494C194.012 470.537 197.483 446.789 202.884 424C221.199 346.726 270.321 282.763 335 237.975C359.464 221.035 385.633 205.811 414 196.355C447.713 185.118 485.657 182.149 521 183.015C571.063 184.241 622.764 196.679 666 222.453C692.846 238.457 716.919 259.156 738.089 282C757.135 302.552 773.983 325.428 785.691 351C797.619 377.049 807.344 405.619 811.725 434C813.999 448.73 814.39 463.175 815.039 478C815.42 486.7 816.344 495.236 815.961 504C815.313 518.797 813.26 533.323 811.282 548C805.495 590.96 793.136 635.212 767.964 671C753.049 692.205 733.776 709.588 713 724.884C675.387 752.576 631.175 773.68 584 776.911C569.992 777.87 555.864 776.585 542 774.718C524.064 772.302 505.741 767.929 489 760.988C469.516 752.91 450.697 741.054 429 748.356C422.171 750.654 415.933 754.312 410 758.344C401.19 764.331 393.511 771.489 386 779C370.635 794.365 353.186 813.701 367.549 836C383.74 861.139 422.325 869.27 450 872.714C516.858 881.032 587.553 875.25 651 851.772C695.67 835.242 735.676 809.961 771 778.169C804.793 747.755 832.097 711.929 853.691 672C916.701 555.493 910.904 406.535 840.47 295C792.69 219.338 716.504 162.162 632 134C595.172 121.727 555.715 116 517 116C506.156 116 494.759 115.012 484 116.424M497 216.424C487.065 217.729 476.969 218.013 467 219.286C447.39 221.788 427.684 226.673 409 233.079C349.466 253.49 297.906 293.001 266.427 348C253.67 370.291 244.404 395.202 237.884 420C231.387 444.714 226.917 470.368 228.039 496C229.598 531.587 242.165 566.856 262.59 596C281.689 623.254 308.154 644.478 343 641.91C352.215 641.231 359.885 634.991 352.467 626.171C346.826 619.463 338.071 615.526 331 610.562C320.249 603.014 310.044 594.63 301.09 585C268.275 549.712 264.288 499.58 270.282 454C278.883 388.59 311.984 327.973 365 287.898C407.2 255.999 459.973 244 512 244C546.447 244 580.238 248.819 612 262.862C664.802 286.207 710.856 334.752 730.564 389C745.572 430.311 749.306 476.562 745.17 520C742.34 549.717 738.276 580.904 724.73 608C713.82 629.822 696.885 648.924 678 664.195C650.512 686.423 621.413 697.511 586 695.961C564.32 695.011 537.796 683.134 517.001 693.836C515.266 694.728 513.591 695.801 512.228 697.213C500.492 709.376 523.557 717.128 532 718.986C549.373 722.809 567.293 723 585 723C614.434 723 643.376 717.715 670 704.741C710.763 684.876 742.013 648.792 760.691 608C767.151 593.892 771.283 578.898 775.424 564C780.93 544.193 786.058 523.607 786.961 503C789.636 441.91 769.604 382.942 736.691 332C721.744 308.864 704.96 287.427 683 270.5C650.49 245.44 608.915 230.982 569 223C553.401 219.881 537.835 217.996 522 216.911C513.658 216.339 505.377 215.324 497 216.424M498 342.424C468.481 346.348 436.124 353.785 412 372.236C394.612 385.535 381.771 403.988 371.306 423C361.81 440.25 352.34 458.038 346.721 477C345.526 481.031 342.034 494.75 349.093 495.534C352.028 495.86 353.817 493.316 354.892 490.981C357.364 485.608 358.649 479.597 360.515 474C368.624 449.679 382.866 430.579 403 414.79C411.769 407.913 420.723 401.316 429 393.83C435.225 388.2 440.781 381.913 448 377.467C454.769 373.298 462.395 371.208 470 369.151C487.658 364.376 506.881 362.255 525 365.464C545.992 369.181 560.783 380.659 575.961 394.826C587.458 405.558 598.435 416.356 606.547 430C620.889 454.12 624.268 487.998 607.907 512C600.341 523.098 586.291 531.172 575.108 519.895C573.417 518.19 572.027 516.244 571.148 514C565.492 499.558 577.325 484.972 578.826 471C581.68 444.447 562.233 422.143 543 406.464C521.89 389.255 497.899 387.522 472 391.13C465.313 392.062 451.272 391.975 447.18 398.394C443.313 404.459 450.309 407.091 455 407.711C463.043 408.772 470.96 408.594 479 410.286C490.909 412.793 503.08 418.777 513 425.721C519.383 430.19 525.339 435.552 529.779 442C544.461 463.319 540.104 491.869 545.424 516C550.538 539.192 566.233 555.053 591 553.961C597.619 553.669 604.076 551.621 610 548.741C649.87 529.357 651.008 477.118 640.848 440C634.461 416.666 623.395 390.468 605.829 373.286C579.194 347.231 534.197 337.613 498 342.424z"/>
</svg>
